<svg width="80" height="80" viewBox="0 0 80 80" fill="none" xmlns="http://www.w3.org/2000/svg">
<g id="addTodo">
<mask id="mask0_20_169" style="mask-type:alpha" maskUnits="userSpaceOnUse" x="0" y="0" width="80" height="80">
<rect id="Bounding box" width="80" height="80" fill="#D9D9D9"/>
</mask>
<g mask="url(#mask0_20_169)">
<path id="add_box" d="M36.6667 56.6667H43.3333V43.3333H56.6667V36.6667H43.3333V23.3333H36.6667V36.6667H23.3333V43.3333H36.6667V56.6667ZM16.6667 70C14.8333 70 13.2639 69.3472 11.9583 68.0417C10.6528 66.7361 10 65.1667 10 63.3333V16.6667C10 14.8333 10.6528 13.2639 11.9583 11.9583C13.2639 10.6528 14.8333 10 16.6667 10H63.3333C65.1667 10 66.7361 10.6528 68.0417 11.9583C69.3472 13.2639 70 14.8333 70 16.6667V63.3333C70 65.1667 69.3472 66.7361 68.0417 68.0417C66.7361 69.3472 65.1667 70 63.3333 70H16.6667Z" fill="#B3D0EB"/>
</g>
</g>
</svg>
